<?xml version="1.0" encoding="utf-8"?>
<!-- Generator: Adobe Illustrator 20.0.0, SVG Export Plug-In . SVG Version: 6.00 Build 0)  -->
<svg version="1.1" id="Capa_1" xmlns="http://www.w3.org/2000/svg" xmlns:xlink="http://www.w3.org/1999/xlink" x="0px" y="0px"
	 viewBox="0 0 48.2 48.2" style="enable-background:new 0 0 48.2 48.2;" xml:space="preserve">
<style type="text/css">
	.st0{fill:#252525;}
</style>
<g>
	<g>
		<path class="st0" d="M26.8,24.1L47.6,3.2c0.7-0.7,0.7-1.9,0-2.7s-1.9-0.7-2.7,0L24.1,21.4L3.2,0.6c-0.7-0.7-1.9-0.7-2.7,0
			s-0.7,1.9,0,2.7l20.9,20.9L0.6,45c-0.7,0.7-0.7,1.9,0,2.7c0.4,0.4,0.8,0.6,1.3,0.6s1-0.2,1.3-0.6l20.9-20.9L45,47.6
			c0.4,0.4,0.8,0.6,1.3,0.6s1-0.2,1.3-0.6c0.7-0.7,0.7-1.9,0-2.7L26.8,24.1z"/>
	</g>
</g>
</svg>
