<svg xmlns="http://www.w3.org/2000/svg" viewBox="0 0 376.4 356.48"><defs><style>.cls-1{fill:#fff;}</style></defs><title>compare-icon</title><g id="Слой_2" data-name="Слой 2"><g id="Capa_1" data-name="Capa 1"><path class="cls-1" d="M375.76,181.36l-.32.16-54-134.4h24.64a8,8,0,0,0,0-16H195.52V8a8,8,0,0,0-16,0V31H29a8,8,0,0,0,0,16H54.72L.64,181.36a8,8,0,0,0-.64,3,66.52,66.52,0,0,0,133,0,8,8,0,0,0-.64-3L78.4,47H179.52V294.32c-38.16,2.88-68,26.08-68,54.16a8,8,0,0,0,8,8h136a8,8,0,0,0,8-8c0-28.08-29.84-51.28-68-54.16V47H297.68L244,181.36a8,8,0,0,0-.64,3,66.52,66.52,0,0,0,133,0A8,8,0,0,0,375.76,181.36ZM66.48,235a50.56,50.56,0,0,1-49.84-42.48H116A50.56,50.56,0,0,1,66.48,235Zm46.64-58.48H20L66.64,60.4Zm133,164H128.88C134.8,323.28,159.2,310,187.44,310S240.16,323.28,246.08,340.48Zm63.44-280,46.48,116H262.88Zm0,174.48V235A50.56,50.56,0,0,1,260,192.48h99.36A50.56,50.56,0,0,1,309.52,235Z"/></g></g></svg>