<?xml version="1.0" encoding="utf-8"?>
<!-- Generator: Adobe Illustrator 20.0.0, SVG Export Plug-In . SVG Version: 6.00 Build 0)  -->
<svg version="1.1" id="Layer_1" xmlns="http://www.w3.org/2000/svg" xmlns:xlink="http://www.w3.org/1999/xlink" x="0px" y="0px"
	 viewBox="0 0 46 46" style="enable-background:new 0 0 46 46;" xml:space="preserve">
<style type="text/css">
	.st0{fill:#D42428;}
	.st1{fill:#CC202D;}
	.st2{fill:#BA202E;}
	.st3{fill:#FFFFFF;}
</style>
<circle class="st0" cx="23" cy="23" r="23"/>
<path class="st1" d="M39.3,6.7c9,9,9,23.5,0,32.5c-9,9-23.5,9-32.5,0L39.3,6.7z"/>
<path class="st2" d="M45.5,27.6L34.2,16.2l-13.4,1.5l-8.1,12.6l15.2,15.2C36.7,43.6,43.7,36.6,45.5,27.6z"/>
<path class="st3" d="M35,18.6c0-1.9-1.6-3.5-3.5-3.5H15.2c-1.9,0-3.5,1.6-3.5,3.5v9.4c0,1.9,1.6,3.5,3.5,3.5h16.4
	c1.9,0,3.5-1.6,3.5-3.5L35,18.6L35,18.6z M21,27.2v-8.8l6.7,4.4L21,27.2z"/>
</svg>
