<?xml version="1.0" encoding="utf-8"?>
<!-- Generator: Adobe Illustrator 20.0.0, SVG Export Plug-In . SVG Version: 6.00 Build 0)  -->
<svg version="1.1" id="Layer_1" xmlns="http://www.w3.org/2000/svg" xmlns:xlink="http://www.w3.org/1999/xlink" x="0px" y="0px"
	 viewBox="0 0 46 46" style="enable-background:new 0 0 46 46;" xml:space="preserve">
<style type="text/css">
	.st0{fill:#3A5A98;}
	.st1{fill:#345387;}
	.st2{fill:#2E4D72;}
	.st3{fill:#FFFFFF;}
</style>
<ellipse class="st0" cx="23" cy="23" rx="23" ry="23"/>
<path class="st1" d="M39.3,6.8c9,9,9,23.5,0,32.5c-9,9-23.5,9-32.5,0L39.3,6.8z"/>
<path class="st2" d="M45.8,25.6L29.2,8.9l-8.6,8.6l0.5,0.5L16.2,23l4,4l-0.5,0.5l4.4,4.4l-5,5l8.6,8.6
	C37.3,43.6,44.7,35.5,45.8,25.6z"/>
<path class="st3" d="M19,14.4c0,0.7,0,3.9,0,3.9h-2.8V23H19v14h5.8V23h3.9c0,0,0.4-2.3,0.5-4.7c-0.5,0-4.4,0-4.4,0s0-2.7,0-3.2
	c0-0.5,0.6-1.1,1.3-1.1c0.6,0,1.9,0,3.2,0c0-0.6,0-2.9,0-4.9c-1.6,0-3.5,0-4.3,0C18.8,9,19,13.7,19,14.4z"/>
</svg>
